<svg width="1236" height="546" viewBox="0 0 1236 546" fill="none" xmlns="http://www.w3.org/2000/svg">
<g clip-path="url(#clip0_495_2)">
<path d="M542.162 80.6002L286.654 537.451C281.378 546.884 267.825 546.939 262.471 537.553L1.89749 80.6427C-3.93694 70.4153 4.81045 58.0251 16.4028 60.0986L272.185 105.812C273.817 106.103 275.487 106.1 277.118 105.803L527.55 60.1624C539.104 58.057 547.892 70.3515 542.162 80.6002Z" fill="url(#paint0_linear_495_2)"/>
<path d="M394.026 0.134074L204.944 37.1813C203.434 37.4773 202.064 38.2669 201.051 39.426C200.038 40.5851 199.439 42.048 199.348 43.5846L187.717 240.009C187.653 241.086 187.841 242.163 188.267 243.155C188.692 244.147 189.342 245.026 190.167 245.723C190.991 246.419 191.966 246.914 193.015 247.168C194.064 247.422 195.158 247.428 196.21 247.185L248.853 235.037C253.778 233.901 258.23 238.239 257.216 243.191L241.576 319.774C240.525 324.928 245.362 329.334 250.396 327.804L282.912 317.927C287.952 316.398 292.796 320.817 291.73 325.975L266.875 446.267C265.32 453.792 275.329 457.895 279.502 451.444L282.292 447.136L436.367 139.676C438.948 134.529 434.497 128.659 428.845 129.751L374.655 140.208C369.564 141.189 365.232 136.447 366.668 131.467L402.036 8.8722C403.474 3.87959 399.125 -0.864447 394.028 0.134074H394.026Z" fill="url(#paint1_linear_495_2)"/>
</g>
<g clip-path="url(#clip1_495_2)">
<path d="M1128.25 178.174C1121.8 175.956 1115.3 173.901 1108.74 172.011C1109.85 167.503 1110.86 163.049 1111.76 158.674C1126.52 86.8229 1116.87 28.9383 1083.9 9.87989C1052.29 -8.39073 1000.58 10.6605 948.369 56.2113C943.223 60.7086 938.191 65.3354 933.278 70.0875C929.989 66.9275 926.642 63.8289 923.239 60.7932C868.514 12.089 813.662 -8.43818 780.725 10.6748C749.14 29.0023 739.787 83.4179 753.081 151.513C754.404 158.257 755.897 164.966 757.56 171.634C749.796 173.846 742.304 176.199 735.133 178.705C670.973 201.128 630 236.267 630 272.716C630 310.36 673.987 348.119 740.812 371.014C746.23 372.863 751.693 374.575 757.195 376.151C755.408 383.333 753.822 390.563 752.437 397.834C739.764 464.747 749.661 517.877 781.161 536.088C813.695 554.895 868.301 535.566 921.47 488.976C925.782 485.188 929.998 481.293 934.116 477.294C939.436 482.44 944.899 487.436 950.497 492.276C1002 536.7 1052.87 554.638 1084.34 536.377C1116.84 517.516 1127.41 460.44 1113.69 391C1112.61 385.56 1111.4 380.147 1110.06 374.765C1113.89 373.626 1117.65 372.454 1121.32 371.235C1190.8 348.164 1236 310.863 1236 272.716C1236 236.134 1193.7 200.758 1128.25 178.174V178.174ZM1113.18 346.605C1109.87 347.704 1106.47 348.764 1103 349.796C1095.33 325.458 1084.99 299.581 1072.32 272.841C1084.41 246.741 1094.36 221.193 1101.81 197.014C1108.01 198.812 1114.03 200.708 1119.83 202.708C1175.9 222.061 1210.11 250.67 1210.11 272.716C1210.11 296.197 1173.17 326.68 1113.18 346.605V346.605ZM1088.29 396.04C1094.36 426.744 1095.22 454.506 1091.21 476.21C1087.6 495.712 1080.34 508.713 1071.36 513.921C1052.27 525.002 1011.43 510.599 967.382 472.606C962.175 468.105 957.094 463.461 952.144 458.677C969.221 439.958 986.286 418.197 1002.94 394.028C1032.24 391.423 1059.91 387.161 1085.01 381.345C1086.22 386.217 1087.32 391.116 1088.29 396.04V396.04ZM836.598 512.006C817.94 518.61 803.078 518.8 794.095 513.608C774.98 502.558 767.033 459.897 777.873 402.674C779.161 395.913 780.637 389.188 782.297 382.508C807.119 388.013 834.595 391.971 863.96 394.358C880.729 418.007 898.286 439.745 915.981 458.779C912.22 462.427 908.371 465.981 904.436 469.438C880.923 490.039 857.363 504.655 836.598 512.006V512.006ZM749.187 346.46C719.638 336.335 695.235 323.178 678.508 308.82C663.477 295.919 655.89 283.109 655.89 272.716C655.89 250.596 688.786 222.384 743.655 203.209C750.314 200.884 757.283 198.689 764.515 196.629C772.099 221.354 782.046 247.206 794.05 273.347C781.89 299.875 771.801 326.139 764.143 351.156C759.12 349.714 754.133 348.148 749.187 346.46V346.46ZM778.488 146.527C767.1 88.1873 774.663 44.1788 793.697 33.1334C813.97 21.369 858.799 38.1424 906.051 80.198C909.132 82.9466 912.163 85.751 915.143 88.6096C897.536 107.561 880.139 129.137 863.52 152.647C835.019 155.295 807.737 159.547 782.654 165.244C781.109 159.042 779.72 152.802 778.488 146.53V146.527ZM1039.89 211.229C1033.96 200.971 1027.82 190.843 1021.46 180.85C1040.79 183.301 1059.32 186.554 1076.72 190.531C1071.49 207.312 1064.99 224.854 1057.32 242.84C1051.72 232.188 1045.91 221.649 1039.89 211.229V211.229ZM933.29 107.155C945.23 120.123 957.189 134.599 968.951 150.307C945.09 149.178 921.189 149.173 897.328 150.293C909.102 134.73 921.163 120.272 933.29 107.155ZM826.007 211.407C820.061 221.743 814.357 232.216 808.899 242.818C801.362 224.897 794.912 207.274 789.645 190.256C806.935 186.379 825.372 183.209 844.584 180.803C838.154 190.856 831.96 201.06 826.007 211.405V211.407ZM845.136 366.475C825.287 364.254 806.572 361.248 789.287 357.475C794.637 340.153 801.23 322.156 808.93 303.849C814.41 314.46 820.137 324.939 826.109 335.28C832.249 345.91 838.607 356.322 845.136 366.475ZM934.005 440.103C921.733 426.834 909.495 412.154 897.543 396.365C909.147 396.821 920.976 397.053 932.999 397.053C945.35 397.053 957.56 396.776 969.578 396.239C957.778 412.313 945.864 427.015 934.005 440.103ZM1057.57 302.914C1065.67 321.422 1072.49 339.325 1077.91 356.35C1060.35 360.37 1041.37 363.606 1021.39 366.01C1027.79 355.832 1033.99 345.527 1039.99 335.102C1046.09 324.505 1051.95 313.773 1057.57 302.914V302.914ZM1017.57 322.137C1008.39 338.121 998.691 353.801 988.495 369.154C970.025 370.465 951.514 371.116 932.999 371.107C914.139 371.107 895.796 370.518 878.132 369.37C867.67 354.053 857.789 338.345 848.512 322.279H848.514C839.28 306.298 830.655 289.972 822.657 273.335C830.635 256.694 839.234 240.36 848.436 224.367L848.434 224.37C857.632 208.373 867.434 192.732 877.817 177.481C895.839 176.114 914.319 175.402 932.996 175.402H932.999C951.761 175.402 970.265 176.121 988.282 177.497C998.56 192.726 1008.3 208.313 1017.48 224.23C1026.71 240.187 1035.43 256.442 1043.6 272.967C1035.51 289.662 1026.83 306.062 1017.57 322.137V322.137ZM1070.97 32.3599C1091.26 44.091 1099.15 91.3977 1086.4 153.435C1085.59 157.393 1084.68 161.424 1083.68 165.512C1058.54 159.694 1031.24 155.369 1002.65 152.68C986.002 128.912 968.748 107.303 951.427 88.5954C955.966 84.2093 960.614 79.9369 965.365 75.7822C1010.1 36.7567 1051.92 21.3477 1070.97 32.3599V32.3599ZM932.999 218.473C962.884 218.473 987.112 242.759 987.112 272.716C987.112 302.672 962.884 326.958 932.999 326.958C903.113 326.958 878.885 302.672 878.885 272.716C878.885 242.759 903.113 218.473 932.999 218.473V218.473Z" fill="#00D8FF"/>
</g>
<defs>
<linearGradient id="paint0_linear_495_2" x1="-4.46462" y1="96.9577" x2="271.067" y2="471.187" gradientUnits="userSpaceOnUse">
<stop stop-color="#41D1FF"/>
<stop offset="1" stop-color="#BD34FE"/>
</linearGradient>
<linearGradient id="paint1_linear_495_2" x1="295.891" y1="10.1931" x2="352.57" y2="399.032" gradientUnits="userSpaceOnUse">
<stop stop-color="#FFEA83"/>
<stop offset="0.08333" stop-color="#FFDD35"/>
<stop offset="1" stop-color="#FFA800"/>
</linearGradient>
<clipPath id="clip0_495_2">
<rect width="544" height="546" fill="white"/>
</clipPath>
<clipPath id="clip1_495_2">
<rect width="606" height="541" fill="white" transform="translate(630 3)"/>
</clipPath>
</defs>
</svg>
